<svg width="24" height="26" viewBox="0 0 24 26" fill="none" xmlns="http://www.w3.org/2000/svg">
<path fill-rule="evenodd" clip-rule="evenodd" d="M22.1541 3.71435C22.6541 3.71435 23.0871 3.89816 23.4521 4.26572C23.8174 4.63328 24 5.06848 24 5.57158V24.143C24 24.6456 23.8172 25.0811 23.4518 25.4487C23.0868 25.8162 22.6538 26 22.1538 26H1.84627C1.34609 26 0.913459 25.8161 0.548116 25.4487C0.182722 25.0809 0 24.6456 0 24.143V5.57163C0 5.06869 0.182722 4.63328 0.548116 4.26577C0.91351 3.89821 1.34614 3.7144 1.84627 3.7144H3.69228V2.32149C3.69228 1.68323 3.9184 1.13663 4.37028 0.682072C4.82226 0.227408 5.36557 0 6.00018 0H6.92318C7.55794 0 8.1012 0.227408 8.55308 0.682072C9.00506 1.13669 9.23113 1.68323 9.23113 2.32149V3.7144H14.7694V2.32149C14.7694 1.68323 14.9953 1.13663 15.4474 0.682072C15.8994 0.227408 16.4426 0 17.0773 0H18.0002C18.635 0 19.178 0.227408 19.6301 0.682021C20.082 1.13663 20.3082 1.68318 20.3082 2.32144V3.71435H22.1541ZM16.7451 1.98793C16.6587 2.07478 16.6158 2.18612 16.6158 2.32165V6.50006C16.6158 6.63554 16.6587 6.74663 16.7451 6.83378C16.8316 6.92083 16.9422 6.96428 17.077 6.96428H17.9999C18.1348 6.96428 18.245 6.92063 18.3318 6.83378C18.4183 6.74668 18.4615 6.63554 18.4615 6.50006V2.32165C18.4615 2.18627 18.4183 2.07493 18.3318 1.98793C18.245 1.90083 18.1348 1.85743 17.9999 1.85743H17.077C16.9422 1.85743 16.8316 1.90098 16.7451 1.98793ZM5.5387 2.32165C5.5387 2.18612 5.58189 2.07478 5.66843 1.98793C5.75501 1.90098 5.8655 1.85743 6.00018 1.85743H6.92318C7.05791 1.85743 7.1686 1.90083 7.25493 1.98793C7.34137 2.07493 7.38476 2.18627 7.38476 2.32165V6.50006C7.38476 6.63554 7.34157 6.74683 7.25493 6.83378C7.1684 6.92063 7.05791 6.96428 6.92318 6.96428H6.00018C5.8655 6.96428 5.75486 6.92083 5.66843 6.83378C5.58209 6.74663 5.5387 6.63554 5.5387 6.50006V2.32165ZM1.84627 23.1428C1.84627 23.6951 2.29398 24.1428 2.84627 24.1428H21.1538C21.7061 24.1428 22.1538 23.6951 22.1538 23.1428V10.2858C22.1538 9.73349 21.7061 9.28578 21.1538 9.28578H2.84627C2.29398 9.28578 1.84627 9.73349 1.84627 10.2858V23.1428Z" fill="#384556"/>
</svg>
