<svg width="17" height="11" viewBox="0 0 17 11" fill="none" xmlns="http://www.w3.org/2000/svg">
<path fill-rule="evenodd" clip-rule="evenodd" d="M14.0395 0.5H2.96046C1.14675 0.5 0.5 1.71877 0.5 2.86327V8.13673C0.5 9.27785 1.14675 10.5 2.96046 10.5H14.0395C15.2276 10.5 16.5 9.8788 16.5 8.13673V2.86327C16.4965 1.11107 15.2276 0.5 14.0395 0.5ZM2.96046 1.00304L14.0395 1.00979C14.4705 1.00625 14.8931 1.12361 15.2557 1.3474L8.5 5.55064L6.9007 4.53781C6.87245 4.51308 6.83884 4.49464 6.80228 4.48379L1.73726 1.34065C2.0964 1.10432 2.52548 0.985863 2.96046 1.00304ZM1.03427 8.13673H1.03076C1.02355 8.64306 1.21709 9.13306 1.57206 9.50743L6.30668 4.78089L1.38576 1.71539C1.15738 2.05815 1.03546 2.45632 1.03427 2.86327V8.13673ZM14.0079 9.98683L2.96397 9.99021C2.62988 9.99831 2.29824 9.93366 1.99385 9.80115L6.74253 5.06111L8.35589 6.07394H8.37346C8.40839 6.09086 8.44684 6.10006 8.48594 6.10094C8.52504 6.10006 8.56349 6.09086 8.59842 6.07394H8.61599L10.2399 5.06111L14.9851 9.78764C14.6779 9.92049 14.3447 9.98844 14.0079 9.98683ZM10.7214 4.76063L15.4561 9.48717C15.8147 9.12483 16.0005 8.63576 15.9692 8.13673V2.84976C15.9881 2.44265 15.8738 2.04005 15.6424 1.69851L10.7214 4.76063Z" fill="#384556"/>
<path d="M16.5 2.86327H16.65V2.86297L16.5 2.86327ZM14.0395 1.00979L14.0395 1.1598L14.0408 1.15979L14.0395 1.00979ZM2.96046 1.00304L2.95453 1.15303L2.96037 1.15304L2.96046 1.00304ZM15.2557 1.3474L15.335 1.47476L15.5405 1.34689L15.3345 1.21976L15.2557 1.3474ZM8.5 5.55064L8.41975 5.67737L8.49929 5.72774L8.57924 5.678L8.5 5.55064ZM6.9007 4.53781L6.80191 4.65068L6.81064 4.65833L6.82045 4.66454L6.9007 4.53781ZM6.80228 4.48379L6.72319 4.61125L6.74031 4.62187L6.75962 4.6276L6.80228 4.48379ZM1.73726 1.34065L1.6548 1.21534L1.45875 1.34435L1.65817 1.4681L1.73726 1.34065ZM1.03076 8.13673V7.98673H0.882875L0.880771 8.1346L1.03076 8.13673ZM1.03427 8.13673V8.28673H1.18427V8.13673H1.03427ZM1.57206 9.50743L1.46321 9.61063L1.56911 9.72232L1.67803 9.61358L1.57206 9.50743ZM6.30668 4.78089L6.41265 4.88705L6.54642 4.75351L6.38599 4.65357L6.30668 4.78089ZM1.38576 1.71539L1.46508 1.58808L1.3416 1.51116L1.26094 1.63222L1.38576 1.71539ZM1.03427 2.86327L0.884271 2.86283V2.86327H1.03427ZM2.96397 9.99021L2.96393 9.84017L2.96034 9.84025L2.96397 9.99021ZM14.0079 9.98683L14.0086 9.83683L14.0079 9.83683L14.0079 9.98683ZM1.99385 9.80115L1.88788 9.69498L1.73188 9.8507L1.93398 9.93868L1.99385 9.80115ZM6.74253 5.06111L6.82228 4.93407L6.72111 4.87055L6.63656 4.95494L6.74253 5.06111ZM8.35589 6.07394L8.27613 6.20098L8.31271 6.22394H8.35589V6.07394ZM8.37346 6.07394L8.43886 5.93894L8.40788 5.92394H8.37346V6.07394ZM8.48594 6.10094L8.48254 6.25106L8.48934 6.25091L8.48594 6.10094ZM8.59842 6.07394V5.92394H8.564L8.53302 5.93894L8.59842 6.07394ZM8.61599 6.07394V6.22394H8.65894L8.69537 6.20121L8.61599 6.07394ZM10.2399 5.06111L10.3458 4.95483L10.2615 4.87087L10.1605 4.93383L10.2399 5.06111ZM14.9851 9.78764L15.0446 9.92531L15.2477 9.83749L15.0909 9.68137L14.9851 9.78764ZM15.4561 9.48717L15.3501 9.59333L15.4567 9.69976L15.5627 9.59269L15.4561 9.48717ZM10.7214 4.76063L10.6422 4.63328L10.4816 4.73319L10.6155 4.86679L10.7214 4.76063ZM15.9692 8.13673H15.8189L15.8195 8.14612L15.9692 8.13673ZM15.9692 2.84976L15.8192 2.84282V2.84976H15.9692ZM15.6424 1.69851L15.7665 1.61436L15.6856 1.49494L15.5631 1.57116L15.6424 1.69851ZM2.96046 0.65H14.0395V0.35H2.96046V0.65ZM0.65 2.86327C0.65 2.31705 0.804521 1.76446 1.1634 1.35074C1.5189 0.940908 2.08987 0.65 2.96046 0.65V0.35C2.01733 0.35 1.35808 0.668478 0.936778 1.15416C0.518853 1.63595 0.35 2.26499 0.35 2.86327H0.65ZM0.65 8.13673V2.86327H0.35V8.13673H0.65ZM2.96046 10.35C2.09001 10.35 1.51901 10.0583 1.16344 9.64805C0.804485 9.23385 0.65 8.68119 0.65 8.13673H0.35C0.35 8.73339 0.518889 9.36237 0.936732 9.84452C1.35797 10.3306 2.0172 10.65 2.96046 10.65V10.35ZM14.0395 10.35H2.96046V10.65H14.0395V10.35ZM16.35 8.13673C16.35 8.96705 16.049 9.5128 15.6216 9.85448C15.1889 10.2005 14.6102 10.35 14.0395 10.35V10.65C14.6569 10.65 15.3085 10.4889 15.809 10.0888C16.3148 9.68437 16.65 9.04848 16.65 8.13673H16.35ZM16.35 2.86327V8.13673H16.65V2.86327H16.35ZM14.0395 0.65C14.6107 0.65 15.1884 0.797234 15.6204 1.14183C16.0471 1.48209 16.3483 2.02774 16.35 2.86357L16.65 2.86297C16.6482 1.94661 16.3132 1.31061 15.8075 0.907291C15.3072 0.508303 14.6565 0.35 14.0395 0.35V0.65ZM14.0396 0.859791L2.96055 0.853039L2.96037 1.15304L14.0395 1.15979L14.0396 0.859791ZM15.3345 1.21976C14.9476 0.980955 14.4972 0.856021 14.0383 0.859796L14.0408 1.15979C14.4438 1.15647 14.8387 1.26626 15.1769 1.47504L15.3345 1.21976ZM8.57924 5.678L15.335 1.47476L15.1765 1.22004L8.42076 5.42328L8.57924 5.678ZM6.82045 4.66454L8.41975 5.67737L8.58025 5.42392L6.98096 4.41109L6.82045 4.66454ZM6.75962 4.6276C6.77581 4.6324 6.79019 4.64043 6.80191 4.65068L6.9995 4.42494C6.95471 4.38574 6.90187 4.35688 6.84495 4.33999L6.75962 4.6276ZM1.65817 1.4681L6.72319 4.61125L6.88138 4.35634L1.81635 1.21319L1.65817 1.4681ZM2.96638 0.853155C2.50051 0.83476 2.04045 0.961572 1.6548 1.21534L1.81971 1.46595C2.15234 1.24707 2.55046 1.13697 2.95454 1.15292L2.96638 0.853155ZM1.03076 8.28673H1.03427V7.98673H1.03076V8.28673ZM1.68091 9.40422C1.3523 9.05765 1.1741 8.60524 1.18074 8.13887L0.880771 8.1346C0.872997 8.68089 1.08189 9.20847 1.46321 9.61063L1.68091 9.40422ZM6.2007 4.67473L1.46608 9.40127L1.67803 9.61358L6.41265 4.88705L6.2007 4.67473ZM1.30645 1.84271L6.22737 4.90821L6.38599 4.65357L1.46508 1.58808L1.30645 1.84271ZM1.18427 2.86371C1.18537 2.48659 1.29833 2.11713 1.51059 1.79857L1.26094 1.63222C1.01643 1.99917 0.885545 2.42606 0.884271 2.86283L1.18427 2.86371ZM1.18427 8.13673V2.86327H0.884271V8.13673H1.18427ZM2.96402 10.1402L14.008 10.1368L14.0079 9.83683L2.96393 9.84021L2.96402 10.1402ZM1.93398 9.93868C2.25851 10.08 2.61183 10.1488 2.96761 10.1402L2.96034 9.84025C2.64792 9.84783 2.33797 9.78736 2.05372 9.66361L1.93398 9.93868ZM6.63656 4.95494L1.88788 9.69498L2.09982 9.90731L6.8485 5.16727L6.63656 4.95494ZM8.43564 5.9469L6.82228 4.93407L6.66278 5.18815L8.27613 6.20098L8.43564 5.9469ZM8.37346 5.92394H8.35589V6.22394H8.37346V5.92394ZM8.48934 5.95098C8.47144 5.95058 8.45417 5.94636 8.43886 5.93894L8.30806 6.20893C8.36261 6.23536 8.42223 6.24954 8.48254 6.25091L8.48934 5.95098ZM8.53302 5.93894C8.51771 5.94636 8.50044 5.95058 8.48254 5.95098L8.48934 6.25091C8.54965 6.24954 8.60927 6.23536 8.66382 6.20893L8.53302 5.93894ZM8.61599 5.92394H8.59842V6.22394H8.61599V5.92394ZM10.1605 4.93383L8.53661 5.94666L8.69537 6.20121L10.3193 5.18838L10.1605 4.93383ZM15.0909 9.68137L10.3458 4.95483L10.134 5.16738L14.8792 9.89392L15.0909 9.68137ZM14.0072 10.1368C14.3646 10.1385 14.7184 10.0664 15.0446 9.92531L14.9255 9.64997C14.6375 9.77454 14.3248 9.83834 14.0086 9.83683L14.0072 10.1368ZM15.562 9.38101L10.8274 4.65448L10.6155 4.86679L15.3501 9.59333L15.562 9.38101ZM15.8195 8.14612C15.8481 8.60151 15.6786 9.04904 15.3495 9.38165L15.5627 9.59269C15.9507 9.20062 16.153 8.67002 16.1189 8.12735L15.8195 8.14612ZM15.8192 2.84976V8.13673H16.1192V2.84976H15.8192ZM15.5182 1.78267C15.7317 2.09775 15.8367 2.46846 15.8194 2.84283L16.1191 2.8567C16.1394 2.41683 16.0159 1.98235 15.7665 1.61436L15.5182 1.78267ZM10.8007 4.88799L15.7216 1.82587L15.5631 1.57116L10.6422 4.63328L10.8007 4.88799Z" fill="#384556"/>
</svg>
