<svg width="19" height="26" viewBox="0 0 19 26" fill="none" xmlns="http://www.w3.org/2000/svg">
<path fill-rule="evenodd" clip-rule="evenodd" d="M0 9.41618C0 4.22409 4.26167 0 9.5 0C14.7383 0 18.9999 4.22409 19 9.41618C19 15.8597 10.4984 25.3192 10.1365 25.7188C9.7971 26.0934 9.20351 26.0941 8.86353 25.7188C8.50157 25.3192 0 15.8597 0 9.41618ZM4.72036 9.41618C4.72036 12.0285 6.86447 14.1537 9.5 14.1537C12.1355 14.1537 14.2796 12.0285 14.2796 9.41623C14.2796 6.80393 12.1355 4.67869 9.5 4.67869C6.86452 4.67869 4.72036 6.80388 4.72036 9.41618Z" fill="#384556"/>
</svg>
